<svg xmlns="http://www.w3.org/2000/svg" xmlns:xlink="http://www.w3.org/1999/xlink" width="794" zoomAndPan="magnify" viewBox="0 0 595.5 842.249979" height="1123" preserveAspectRatio="xMidYMid meet" version="1.0"><defs><clipPath id="393dfc7b68"><path d="M 0.015625 0 L 594.984375 0 L 594.984375 841.5 L 0.015625 841.5 Z M 0.015625 0 " clip-rule="nonzero"/></clipPath><clipPath id="c0992ca8de"><path d="M 0.015625 0 L 594.984375 0 L 594.984375 841.5 L 0.015625 841.5 Z M 0.015625 0 " clip-rule="nonzero"/></clipPath><clipPath id="8f5a3bfc22"><path d="M 34.085938 174.222656 L 561.066406 174.222656 L 561.066406 701.203125 L 34.085938 701.203125 Z M 34.085938 174.222656 " clip-rule="nonzero"/></clipPath><clipPath id="78953f947a"><rect x="0" width="595" y="0" height="842"/></clipPath></defs><g clip-path="url(#393dfc7b68)"><path fill="#ffffff" d="M 0.015625 0 L 594.984375 0 L 594.984375 841.5 L 0.015625 841.5 Z M 0.015625 0 " fill-opacity="1" fill-rule="nonzero"/><g transform="matrix(1, 0, 0, 1, -0.000000000000000002, 0)"><g clip-path="url(#78953f947a)"><g clip-path="url(#c0992ca8de)"><path fill="#ffffff" d="M 0.015625 0 L 595.210938 0 L 595.210938 841.816406 L 0.015625 841.816406 Z M 0.015625 0 " fill-opacity="1" fill-rule="nonzero"/></g><g clip-path="url(#8f5a3bfc22)"><path fill="#2197bd" d="M 561.066406 621.074219 C 561.066406 665.300781 525.214844 701.152344 480.988281 701.152344 L 114.179688 701.152344 C 69.957031 701.152344 34.109375 665.300781 34.109375 621.074219 L 34.109375 254.265625 C 34.109375 210.039062 69.957031 174.191406 114.179688 174.191406 L 480.988281 174.191406 C 525.214844 174.191406 561.070312 210.039062 561.070312 254.265625 L 561.070312 621.074219 Z M 561.066406 621.074219 " fill-opacity="1" fill-rule="nonzero"/></g><path fill="#ffffff" d="M 242.476562 362.195312 C 242.476562 363.484375 242.414062 364.769531 242.289062 366.054688 C 242.164062 367.335938 241.972656 368.609375 241.722656 369.875 C 241.46875 371.140625 241.15625 372.390625 240.78125 373.621094 C 240.410156 374.855469 239.976562 376.070312 239.480469 377.261719 C 238.988281 378.453125 238.4375 379.617188 237.828125 380.753906 C 237.222656 381.890625 236.558594 382.992188 235.84375 384.066406 C 235.128906 385.136719 234.359375 386.171875 233.542969 387.167969 C 232.726562 388.164062 231.859375 389.121094 230.949219 390.03125 C 230.035156 390.941406 229.082031 391.808594 228.085938 392.625 C 227.089844 393.445312 226.054688 394.210938 224.984375 394.925781 C 223.910156 395.644531 222.804688 396.304688 221.667969 396.914062 C 220.53125 397.519531 219.367188 398.070312 218.175781 398.566406 C 216.984375 399.058594 215.773438 399.492188 214.539062 399.867188 C 213.304688 400.242188 212.058594 400.554688 210.792969 400.804688 C 209.527344 401.054688 208.253906 401.246094 206.972656 401.371094 C 205.6875 401.496094 204.402344 401.5625 203.113281 401.5625 C 201.824219 401.5625 200.539062 401.496094 199.253906 401.371094 C 197.972656 401.246094 196.695312 401.054688 195.433594 400.804688 C 194.167969 400.554688 192.917969 400.242188 191.683594 399.867188 C 190.453125 399.492188 189.238281 399.058594 188.046875 398.566406 C 186.855469 398.070312 185.691406 397.519531 184.554688 396.914062 C 183.417969 396.304688 182.3125 395.644531 181.242188 394.925781 C 180.171875 394.210938 179.136719 393.445312 178.140625 392.625 C 177.144531 391.808594 176.1875 390.941406 175.277344 390.03125 C 174.367188 389.121094 173.5 388.164062 172.683594 387.167969 C 171.863281 386.171875 171.097656 385.136719 170.382812 384.066406 C 169.664062 382.992188 169.003906 381.890625 168.394531 380.753906 C 167.789062 379.617188 167.238281 378.453125 166.742188 377.261719 C 166.25 376.070312 165.816406 374.855469 165.441406 373.621094 C 165.066406 372.390625 164.753906 371.140625 164.503906 369.875 C 164.25 368.609375 164.0625 367.335938 163.9375 366.054688 C 163.808594 364.769531 163.746094 363.484375 163.746094 362.195312 C 163.746094 360.90625 163.808594 359.621094 163.9375 358.335938 C 164.0625 357.054688 164.25 355.78125 164.503906 354.515625 C 164.753906 353.25 165.066406 352.003906 165.441406 350.769531 C 165.816406 349.535156 166.25 348.320312 166.742188 347.132812 C 167.238281 345.941406 167.789062 344.777344 168.394531 343.640625 C 169.003906 342.5 169.664062 341.398438 170.382812 340.324219 C 171.097656 339.253906 171.863281 338.21875 172.683594 337.222656 C 173.5 336.226562 174.367188 335.273438 175.277344 334.359375 C 176.1875 333.449219 177.144531 332.582031 178.140625 331.765625 C 179.136719 330.949219 180.171875 330.179688 181.242188 329.464844 C 182.3125 328.746094 183.417969 328.085938 184.554688 327.476562 C 185.691406 326.871094 186.855469 326.320312 188.046875 325.828125 C 189.238281 325.332031 190.453125 324.898438 191.683594 324.523438 C 192.917969 324.152344 194.167969 323.835938 195.433594 323.585938 C 196.695312 323.335938 197.972656 323.144531 199.253906 323.019531 C 200.539062 322.894531 201.824219 322.828125 203.113281 322.828125 C 204.402344 322.828125 205.6875 322.894531 206.972656 323.019531 C 208.253906 323.144531 209.527344 323.335938 210.792969 323.585938 C 212.058594 323.835938 213.304688 324.152344 214.539062 324.523438 C 215.773438 324.898438 216.984375 325.332031 218.175781 325.828125 C 219.367188 326.320312 220.53125 326.871094 221.667969 327.476562 C 222.804688 328.085938 223.910156 328.746094 224.984375 329.464844 C 226.054688 330.179688 227.089844 330.949219 228.085938 331.765625 C 229.082031 332.582031 230.035156 333.449219 230.949219 334.359375 C 231.859375 335.273438 232.726562 336.226562 233.542969 337.222656 C 234.359375 338.21875 235.128906 339.253906 235.84375 340.324219 C 236.558594 341.398438 237.222656 342.5 237.828125 343.640625 C 238.4375 344.777344 238.988281 345.941406 239.480469 347.132812 C 239.976562 348.320312 240.410156 349.535156 240.78125 350.769531 C 241.15625 352.003906 241.46875 353.25 241.722656 354.515625 C 241.972656 355.78125 242.164062 357.054688 242.289062 358.335938 C 242.414062 359.621094 242.476562 360.90625 242.476562 362.195312 Z M 242.476562 362.195312 " fill-opacity="1" fill-rule="nonzero"/><path fill="#ffffff" d="M 169.175781 430.582031 L 236.804688 430.582031 L 236.804688 648.144531 L 169.175781 648.144531 Z M 169.175781 430.582031 " fill-opacity="1" fill-rule="nonzero"/><path fill="#ffffff" d="M 279.339844 430.582031 L 343.710938 430.582031 L 343.710938 648.144531 L 279.339844 648.144531 Z M 279.339844 430.582031 " fill-opacity="1" fill-rule="nonzero"/><path fill="#ffffff" d="M 282.121094 546.417969 L 346.488281 546.417969 L 346.488281 648.144531 L 282.121094 648.144531 Z M 282.121094 546.417969 " fill-opacity="1" fill-rule="nonzero"/><path fill="#ffffff" d="M 346.488281 546.417969 C 346.488281 546.417969 345.484375 518.199219 352.925781 503.527344 C 352.925781 503.527344 360.367188 485.460938 383.761719 485.351562 C 383.761719 485.351562 411.195312 480.5625 419.0625 507.785156 C 419.0625 507.785156 422.039062 522.878906 422.039062 529.261719 C 422.039062 535.644531 422.253906 648.144531 422.253906 648.144531 L 489.667969 648.144531 L 489.667969 523.523438 C 489.667969 523.523438 494.5625 453.125 452.308594 433.84375 C 452.308594 433.84375 382.835938 402.652344 345.128906 459.933594 C 345.128906 459.933594 336.90625 465.601562 335.769531 449.722656 C 334.632812 433.84375 324.992188 474.109375 324.710938 474.960938 C 324.425781 475.8125 335.769531 555.207031 335.769531 555.207031 Z M 346.488281 546.417969 " fill-opacity="1" fill-rule="nonzero"/></g></g></g></svg>